PathFileType	4	(X/Y/Z) flx_2kg_3.trc																										
DataRate	CameraRate	NumFrames	NumMarkers	Units	OrigDataRate	OrigDataStartFrame	OrigNumFrames																					
100	100	34	9	mm	100	388	774																					
Frame#	Time	gu			centelbow			EpL			centpxt8			centijc7			ij			ts			aa			ai		
		X1	Y1	Z1	X2	Y2	Z2	X3	Y3	Z3	X4	Y4	Z4	X5	Y5	Z5	X6	Y6	Z6	X7	Y7	Z7	X8	Y8	Z8	X9	Y9	Z9  
387	3.87	-97.665	65.35	104.336	11.27	267.655	194.835	-14.182	282.394	181.63	-46.816	-153.158	-8.669	-46.816	31.938	-8.669	0	0	0	-139.233	-17.108	56.822	-130.764	87.764	112.992	-109.84	-66.093	154.915
388	3.88	-97.903	64.932	105.103	12.558	266.005	196.493	-12.814	280.987	183.409	-46.816	-153.158	-8.669	-46.816	31.938	-8.669	0	0	0	-139.573	-16.696	57.107	-130.682	88.011	113.519	-110.186	-66.014	155.034
389	3.89	-97.997	64.696	105.942	14.015	264.501	198.222	-11.28	279.728	185.271	-46.816	-153.158	-8.669	-46.816	31.938	-8.669	0	0	0	-139.808	-16.177	57.18	-130.471	88.357	113.84	-110.366	-65.836	154.919
390	3.9	-97.73	64.786	106.335	15.862	263.326	199.411	-9.367	278.791	186.616	-46.816	-153.158	-8.669	-46.816	31.938	-8.669	0	0	0	-139.905	-16.054	57.128	-130.039	88.29	114.047	-110.426	-66.089	154.663
391	3.91	-97.388	65.078	106.035	17.781	262.411	199.735	-7.396	278.102	187.112	-46.816	-153.158	-8.669	-46.816	31.938	-8.669	0	0	0	-140.005	-16.348	57.059	-129.57	87.792	114.25	-110.55	-66.784	154.395
392	3.92	-97.251	65.467	105.406	19.388	261.699	199.6	-5.735	277.594	187.127	-46.816	-153.158	-8.669	-46.816	31.938	-8.669	0	0	0	-140.239	-16.418	56.939	-129.309	87.523	114.4	-110.833	-67.237	154.091
393	3.93	-97.135	65.909	105.111	20.834	261.076	199.86	-4.218	277.169	187.496	-46.816	-153.158	-8.669	-46.816	31.938	-8.669	0	0	0	-140.523	-15.889	56.67	-129.205	87.871	114.38	-111.162	-67.045	153.658
394	3.94	-96.776	66.331	105.405	22.469	260.348	200.916	-2.484	276.651	188.628	-46.816	-153.158	-8.669	-46.816	31.938	-8.669	0	0	0	-140.624	-15.174	56.399	-128.938	88.413	114.347	-111.337	-66.651	153.239
395	3.95	-96.328	66.569	106.018	24.26	259.282	202.477	-0.57	275.82	190.255	-46.816	-153.158	-8.669	-46.816	31.938	-8.669	0	0	0	-140.471	-14.744	56.447	-128.372	88.65	114.655	-111.327	-66.578	153.14
396	3.96	-96.057	66.525	106.617	26.021	257.778	204.104	1.327	274.574	191.96	-46.816	-153.158	-8.669	-46.816	31.938	-8.669	0	0	0	-140.311	-14.585	56.891	-127.746	88.582	115.403	-111.361	-66.832	153.42
397	3.97	-95.789	66.337	107.075	27.951	256.017	205.534	3.395	273.088	193.492	-46.816	-153.158	-8.669	-46.816	31.938	-8.669	0	0	0	-140.438	-14.53	57.406	-127.324	88.382	116.244	-111.662	-67.234	153.738
398	3.98	-95.287	66.155	107.47	30.258	254.219	206.743	5.839	271.569	194.822	-46.816	-153.158	-8.669	-46.816	31.938	-8.669	0	0	0	-140.829	-14.488	57.555	-127.052	88.158	116.705	-112.139	-67.66	153.655
399	3.99	-94.815	65.94	107.942	32.596	252.378	207.901	8.315	270.006	196.107	-46.816	-153.158	-8.669	-46.816	31.938	-8.669	0	0	0	-141.186	-14.317	57.271	-126.702	88.074	116.694	-112.494	-67.933	153.124
400	4	-94.704	65.632	108.445	34.537	250.441	209.076	10.395	268.342	197.408	-46.816	-153.158	-8.669	-46.816	31.938	-8.669	0	0	0	-141.346	-13.918	56.886	-126.221	88.241	116.548	-112.645	-67.931	152.513
401	4.01	-94.875	65.373	108.779	36.095	248.567	210.127	12.089	266.731	198.586	-46.816	-153.158	-8.669	-46.816	31.938	-8.669	0	0	0	-141.47	-13.455	56.755	-125.783	88.48	116.654	-112.841	-67.842	152.192
402	4.02	-95.028	65.474	108.84	37.554	247.121	210.874	13.674	265.532	199.463	-46.816	-153.158	-8.669	-46.816	31.938	-8.669	0	0	0	-141.709	-13.094	56.966	-125.485	88.604	117.125	-113.246	-67.874	152.227
403	4.03	-94.864	66.097	108.654	39.267	246.3	211.221	15.504	264.938	199.937	-46.816	-153.158	-8.669	-46.816	31.938	-8.669	0	0	0	-141.985	-12.725	57.24	-125.192	88.717	117.674	-113.685	-67.92	152.309
404	4.04	-94.277	67.062	108.237	41.455	245.857	211.163	17.805	264.717	200.007	-46.816	-153.158	-8.669	-46.816	31.938	-8.669	0	0	0	-142.277	-12.241	57.249	-124.859	88.937	117.948	-114.037	-67.856	152.091
405	4.05	-93.568	68.046	107.635	43.915	245.334	210.842	20.385	264.428	199.831	-46.816	-153.158	-8.669	-46.816	31.938	-8.669	0	0	0	-142.742	-11.684	57.05	-124.668	89.232	117.995	-114.468	-67.712	151.639
406	4.06	-93.23	68.645	107.202	46.192	244.194	210.78	22.802	263.552	199.934	-46.816	-153.158	-8.669	-46.816	31.938	-8.669	0	0	0	-143.361	-11.171	56.961	-124.641	89.488	118.134	-115.066	-67.595	151.308
407	4.07	-93.384	68.467	107.484	48.131	241.972	211.666	24.913	261.632	200.996	-46.816	-153.158	-8.669	-46.816	31.938	-8.669	0	0	0	-143.924	-10.86	57.157	-124.567	89.55	118.542	-115.72	-67.662	151.304
408	4.08	-93.613	67.579	108.604	50.063	238.799	213.605	27.046	258.788	203.114	-46.816	-153.158	-8.669	-46.816	31.938	-8.669	0	0	0	-144.378	-10.775	57.558	-124.38	89.382	119.15	-116.358	-67.953	151.532
409	4.09	-93.517	66.646	110.003	52.284	235.525	215.865	29.469	255.841	205.561	-46.816	-153.158	-8.669	-46.816	31.938	-8.669	0	0	0	-144.818	-10.787	57.926	-124.168	89.093	119.752	-116.966	-68.37	151.702
410	4.1	-93.199	66.432	110.867	54.603	233.083	217.481	31.961	253.699	207.394	-46.816	-153.158	-8.669	-46.816	31.938	-8.669	0	0	0	-145.262	-10.73	58.002	-123.933	88.84	120.095	-117.46	-68.76	151.518
411	4.11	-92.995	67.065	110.864	56.689	231.613	218.118	34.182	252.5	208.29	-46.816	-153.158	-8.669	-46.816	31.938	-8.669	0	0	0	-145.597	-10.452	57.701	-123.57	88.8	120.061	-117.725	-68.938	150.911
412	4.12	-92.984	67.867	110.502	58.585	230.234	218.428	36.206	251.391	208.89	-46.816	-153.158	-8.669	-46.816	31.938	-8.669	0	0	0	-145.728	-9.992	57.183	-123.021	88.953	119.785	-117.761	-68.911	150.092
413	4.13	-92.955	68.166	110.522	60.632	228.043	219.309	38.412	249.502	210.078	-46.816	-153.158	-8.669	-46.816	31.938	-8.669	0	0	0	-145.801	-9.648	56.71	-122.468	89.012	119.531	-117.813	-68.961	149.362
414	4.14	-92.737	68.02	111.026	63.058	225.051	220.813	41.032	246.847	211.912	-46.816	-153.158	-8.669	-46.816	31.938	-8.669	0	0	0	-146.076	-9.572	56.479	-122.173	88.819	119.509	-118.148	-69.252	148.913
415	4.15	-92.365	67.969	111.564	65.815	221.962	222.239	43.992	244.107	213.709	-46.816	-153.158	-8.669	-46.816	31.938	-8.669	0	0	0	-146.511	-9.575	56.548	-122.074	88.534	119.812	-118.652	-69.636	148.755
416	4.16	-91.894	68.462	111.803	68.741	219.474	223.051	47.098	241.947	214.932	-46.816	-153.158	-8.669	-46.816	31.938	-8.669	0	0	0	-146.806	-9.498	56.804	-121.83	88.283	120.366	-118.956	-70.005	148.722
417	4.17	-91.426	69.446	111.717	71.581	217.668	223.266	50.091	240.438	215.575	-46.816	-153.158	-8.669	-46.816	31.938	-8.669	0	0	0	-146.822	-9.282	56.884	-121.282	88.127	120.789	-118.884	-70.293	148.442
418	4.18	-91.245	70.391	111.443	73.988	215.922	223.261	52.651	238.968	215.978	-46.816	-153.158	-8.669	-46.816	31.938	-8.669	0	0	0	-146.707	-8.762	56.446	-120.602	88.276	120.688	-118.584	-70.275	147.611
419	4.19	-91.39	70.76	111.258	75.939	213.511	223.542	54.791	236.839	216.617	-46.816	-153.158	-8.669	-46.816	31.938	-8.669	0	0	0	-146.663	-8.001	55.79	-120.014	88.685	120.337	-118.37	-69.983	146.583
420	4.2	-91.396	70.475	111.44	77.896	210.293	224.469	56.983	233.919	217.842	-46.816	-153.158	-8.669	-46.816	31.938	-8.669	0	0	0	-146.721	-7.475	55.567	-119.511	88.854	120.415	-118.435	-69.921	146.044
